<svg viewBox="0 0 24 24" xmlns="http://www.w3.org/2000/svg" xml:space="preserve" style="fill-rule:evenodd;clip-rule:evenodd;stroke-linejoin:round;stroke-miterlimit:2">
    <path style="fill:NONE" d="M-16.619-16.244H92.048V92.423H-16.619z" transform="matrix(.22086 0 0 .22086 3.67 3.588)"/>
    <path d="M22.565 12.55c-.87 1.375-2.046 2.044-3.594 2.044-1.54 0-3.127-.656-4.401-1.182-.83-.341-1.484-.612-1.92-.612-.974 0-1.71.508-2.3.919-.363.25-.676.467-.91.467l-.036-.001c-.626-.065-1.03-.418-1.42-.759-.369-.322-.717-.625-1.202-.625-.431 0-.893.243-1.456.767-.313.292-.628.432-.966.432-.77 0-1.59-.746-2.38-1.47-.2-.18-.405-.368-.607-.543a.197.197 0 0 0-.204-.029.183.183 0 0 0-.111.167s-.1 1.82 0 2.417c.081.497 2.403 2.047 3.301 2.242.435 0 .847-.18 1.23-.535.48-.448.87-.665 1.193-.665.34 0 .621.245.947.532.415.361.886.772 1.634.85a.67.67 0 0 0 .077.004c.356 0 .715-.25 1.13-.537.548-.38 1.228-.85 2.08-.85.359 0 1.013.27 1.77.582 1.307.54 2.933 1.212 4.55 1.212 1.669 0 3.475-1.61 3.919-2.22.26-.356.028-2.511.028-2.511a.186.186 0 0 0-.138-.177.193.193 0 0 0-.214.08Z"/>
    <path d="M3.178 8.532c-.4-.276-.803-.645-1.199-1.006a23.989 23.989 0 0 0-.606-.542.194.194 0 0 0-.204-.03.182.182 0 0 0-.111.168s-.1 1.819 0 2.415c.081.497 2.403 2.046 3.301 2.243.435 0 .847-.18 1.23-.535.48-.447.87-.666 1.193-.666.34 0 .621.247.947.532.415.362.886.772 1.634.85a.955.955 0 0 0 .077.004c.356 0 .715-.248 1.13-.536.548-.38 1.228-.851 2.08-.851.359 0 1.013.27 1.77.584 1.307.538 2.933 1.21 4.55 1.21 1.669 0 3.475-1.608 3.919-2.218.26-.357.028-2.513.028-2.513a.186.186 0 0 0-.138-.176.195.195 0 0 0-.214.08c-.87 1.376-2.046 2.045-3.594 2.045-1.54 0-3.127-.655-4.401-1.183-.83-.341-1.484-.613-1.92-.613-.974 0-1.71.51-2.3.92-.363.252-.676.468-.91.468l-.036-.001c-.626-.066-1.03-.418-1.42-.76-.369-.321-.717-.624-1.202-.624-.431 0-.893.244-1.456.768-.313.29-.628.432-.966.432-.385 0-.782-.186-1.182-.465Z"/>
</svg>
