<svg viewBox="0 0 24 24" xmlns="http://www.w3.org/2000/svg" xml:space="preserve" style="fill: currentColor; fill-rule:evenodd;clip-rule:evenodd;stroke-linejoin:round;stroke-miterlimit:2">
    <path style="fill:none" d="M-16.619-16.244H92.048V92.423H-16.619z" transform="matrix(.22086 0 0 .22086 3.67 3.588)"/>
    <path d="M141.617 88.432c-7.272-2.693-16.646-3.361-21.865 4.962-2.456 3.922-3.81 12.044-6.231 12.165-2.421-.121-2.901-7.762-6.231-12.165-6.551-8.647-14.594-7.655-21.867-4.962-6.535 2.426-10.408 12.349-8.159 17.651 2.22 5.242 5.82 6.698 9.171 6.698 3.351 0 8.636-6.194 2.92-6.99-1.859-.26-5.747-2.957-4.214-7.554 1.393-4.174 5.91-4.778 10.347-2.846 4.438 1.937 11.802 10.836 12.888 16.158 1.09 5.326 0 21.117 0 28.319 0 3.825 1.334 5.059 2.582 5.366 1.103.276 4.022.276 5.125 0 1.25-.307 2.582-1.541 2.582-5.366 0-7.202-1.09-22.993 0-28.319 1.087-5.322 8.45-14.221 12.888-16.158 4.439-1.932 8.955-1.328 10.347 2.846 1.533 4.597-2.355 7.294-4.214 7.554-5.716.796-.429 6.99 2.921 6.99 3.351 0 6.95-1.456 9.17-6.698 2.249-5.302-1.624-15.225-8.16-17.651Z" style="fill-rule:nonzero" transform="matrix(.29809 0 0 .29809 -21.827 -22.56)"/>
</svg>
