<svg viewBox="0 0 24 24" xmlns="http://www.w3.org/2000/svg" xml:space="preserve" style="fill-rule:evenodd;clip-rule:evenodd;stroke-linejoin:round;stroke-miterlimit:2">
    <path style="fill:none" d="M-16.619-16.244H92.048V92.423H-16.619z" transform="matrix(.22086 0 0 .22086 3.67 3.588)"/>
    <path d="M697.305 115.96c0-3.569 2.959-6.458 6.607-6.458 3.652 0 6.609 2.889 6.609 6.458 0 3.562-2.957 6.451-6.609 6.451-3.648 0-6.607-2.889-6.607-6.451Zm-37.352 17.976c10.904 5.761 20.408 7.119 27.504 6.898 6.059-.192 14.383-.952 23.064-8.863 8.685-7.911 7.969-15.635 7.969-15.635l-.011.013c.004-.133.011-.261.011-.389 0-6.186-6.526-11.204-14.578-11.204-8.053 0-14.577 5.018-14.577 11.204 0 6.183 6.524 11.2 14.577 11.2.513 0 1.016-.019 1.515-.059-.024.412-.428 1.137-1.515 2.4-3.692 4.303-13.121 6.916-19.89 6.835-6.69-.076-14.521-4.073-16.942-5.57-2.462-1.517-2.593-3.129-5.994-1.232-3.336 1.864-2.051 3.913-1.133 4.402Z" style="fill-rule:nonzero" transform="matrix(.34347 0 0 .34347 -223.767 -27.817)"/>
    <path d="M675.655 115.973c0 3.56-2.962 6.45-6.609 6.45-3.65 0-6.608-2.89-6.608-6.45 0-3.57 2.958-6.46 6.608-6.46 3.647 0 6.609 2.89 6.609 6.46Zm37.351-17.979c-10.908-5.763-20.408-7.123-27.503-6.895-6.06.184-14.386.944-23.065 8.856-8.683 7.915-7.969 15.637-7.969 15.637l.01-.008c-.003.129-.01.256-.01.389 0 6.182 6.525 11.199 14.577 11.199 8.049 0 14.576-5.017 14.576-11.199 0-6.191-6.527-11.205-14.576-11.205-.514 0-1.017.02-1.518.06.026-.412.43-1.137 1.518-2.401 3.692-4.306 13.12-6.918 19.891-6.838 6.688.08 14.521 4.073 16.942 5.569 2.461 1.521 2.592 3.134 5.991 1.237 3.337-1.86 2.053-3.913 1.136-4.401Z" style="fill-rule:nonzero" transform="matrix(.34347 0 0 .34347 -223.767 -27.817)"/>
</svg>
