<svg viewBox="0 0 24 24" xmlns="http://www.w3.org/2000/svg" xml:space="preserve" style="fill-rule:evenodd;clip-rule:evenodd;stroke-linejoin:round;stroke-miterlimit:2">
    <path style="fill:none" d="M-16.619-16.244H92.048V92.423H-16.619z" transform="matrix(.22086 0 0 .22086 3.67 3.588)"/>
    <path d="M314.815 499.191c-5.727 0-10.37-4.262-10.37-9.521 0-5.254 4.643-9.516 10.37-9.516 5.73 0 10.372 4.262 10.372 9.516 0 5.259-4.642 9.521-10.372 9.521Zm3.421-27.475c-1.174-3.118 9.16-10.62 14.125-15.054 5.629-5.03-1.808-5.225-3.619-5.03-1.81.2-17.796.102-20.513.2-2.712.104-20.81-.6-26.441-1.909-9.183-2.212-7.663 7.764-7.663 10.535 0 2.209 1.528 11.134 3.752 11.134 2.223 0 3.681-1.401 4.213-7.592.352-4.104 4.664-3.748 6.468-3.754 5.346-.016 14.656.741 22.119.67 11.941-.108-2.619 9.601-8.361 12.809-6.531 3.654-25.823 5.623-25.556 15.345 0 3.754 3.165 4.498 6.301 1.472 2.96-2.853 9.326-7.105 12.773-7.369.036-.005.075-.013.111-.016a17.092 17.092 0 0 0-1.288 6.513c0 10.222 9.026 18.504 20.158 18.504 11.134 0 19.869-8.287 20.161-18.504.385-13.496-15.566-14.837-16.74-17.954Z" style="fill-rule:nonzero" transform="matrix(.32813 0 0 .32813 -87.917 -145.137)"/>
</svg>
