<svg viewBox="0 0 24 24" xmlns="http://www.w3.org/2000/svg" xml:space="preserve" style="fill-rule:evenodd;clip-rule:evenodd;stroke-linejoin:round;stroke-miterlimit:2">
    <path style="fill:none" d="M-16.619-16.244H92.048V92.423H-16.619z" transform="matrix(.22086 0 0 .22086 3.67 3.588)"/>
    <path d="M97.478 308.613a7.207 7.207 0 0 1-7.205-7.205 7.202 7.202 0 0 1 7.205-7.204 7.204 7.204 0 1 1 0 14.409Zm37.855 13.691c-3.304-2.375-2.63-10.342 1.971-16.224 5.258-6.716 8.278-12.463 8.373-18.988-.486-13.923-12.535-19.289-22.394-19.276-28.653.027-23.216 19.877-23.216 19.877s.174.696-.446.372c-3.604-1.36-18.258.048-18.258 14.07 0 8.768 7.361 13.82 16.115 14.11 8.867.296 23.425-7.191 12.074-28.47-3.745-7.019-.631-11.025 2.558-12.731 5.038-2.701 18.035-1.461 22.663 7.215 3.851 7.223 1.469 13.643-1.486 18.709-3.44 5.897-9.055 12.78-9.277 18.335-.216 5.546 4.312 11.443 9.592 11.559 6.946.156 10.102-5.013 9.595-6.474-.513-1.46-4.347.444-7.864-2.084Z" style="fill-rule:nonzero" transform="matrix(.32652 0 0 .32652 -25.067 -85.741)"/>
</svg>
