<svg viewBox="0 0 24 24" xmlns="http://www.w3.org/2000/svg" xml:space="preserve" style="fill-rule:evenodd;clip-rule:evenodd;stroke-linejoin:round;stroke-miterlimit:2">
    <path style="fill:none" d="M-16.619-16.244H92.048V92.423H-16.619z" transform="matrix(.22086 0 0 .22086 3.67 3.588)"/>
    <path d="M528.301 309.659c-4.713 1.369-60.902 1.369-65.619 0-4.716-1.368-4.357.956-3.554 4.306.751 3.13.821 7.384 8.887 5.397 8.064-1.98 46.89-1.98 54.957 0 8.067 1.987 8.134-2.267 8.887-5.397.801-3.35 1.159-5.674-3.558-4.306ZM529.692 294.685c-2.323.669-10.606 1.001-18.481 1.169.032-.421.055-.84.055-1.269 0-8.711-7.062-15.774-15.773-15.774-8.711 0-15.774 7.063-15.774 15.774 0 .429.023.848.057 1.269-7.875-.168-16.162-.5-18.484-1.169-4.758-1.369-4.396.957-3.585 4.31.755 3.125.589 5.466 8.965 5.398 3.787-.028 19.584-.331 22.31-1.401 2.357-.92 1.738-2.264.252-3.649-1.486-1.388-1.785-3.369-1.785-3.369a8.29 8.29 0 1 1 16.088 0s-.299 1.981-1.785 3.369c-1.486 1.385-2.105 2.729.252 3.649 2.356.925 17.824 1.908 22.309 1.401 8.326-.946 8.21-2.273 8.967-5.398.81-3.353 1.172-5.679-3.588-4.31Z" style="fill-rule:nonzero" transform="translate(-130.382 -74.316) scale(.28738)"/>
</svg>
