<?xml version="1.0" encoding="UTF-8" standalone="no"?>
<!DOCTYPE svg PUBLIC "-//W3C//DTD SVG 1.1//EN" "http://www.w3.org/Graphics/SVG/1.1/DTD/svg11.dtd">
<svg width="100%" height="100%" viewBox="0 0 62 113" version="1.1" xmlns="http://www.w3.org/2000/svg" xmlns:xlink="http://www.w3.org/1999/xlink" xml:space="preserve" xmlns:serif="http://www.serif.com/" style="fill-rule:evenodd;clip-rule:evenodd;stroke-linecap:round;stroke-linejoin:round;stroke-miterlimit:1.5;">
    <g transform="matrix(1,0,0,1,-112.039,-290.573)">
        <g transform="matrix(1.13873,0,0,1.13873,431.78,448.468)">
            <g transform="matrix(0.886309,0,0,0.886309,-380.342,-397.24)">
                <path d="M142.997,364.821L142.997,400.491" style="fill:none;stroke:black;stroke-width:5.94px;"/>
            </g>
            <g transform="matrix(5.42708e-17,-0.886309,0.886309,5.42708e-17,-592.753,68.6511)">
                <path d="M142.997,364.821L142.997,400.491" style="fill:none;stroke:black;stroke-width:5.94px;"/>
            </g>
            <g transform="matrix(1.16446,0,0,1.16446,-453.709,-502.365)">
                <circle cx="171.845" cy="346.115" r="21.085" style="fill:none;stroke:black;stroke-width:4.52px;"/>
            </g>
            <g transform="matrix(0.878175,0,0,0.878175,-379.178,-393.834)">
                <path d="M119.014,293.573C119.014,293.573 126.795,307.404 142.997,307.404C159.199,307.404 167.227,293.573 167.227,293.573" style="fill:none;stroke:black;stroke-width:6px;"/>
            </g>
        </g>
    </g>
</svg>
