<?xml version="1.0" encoding="UTF-8" standalone="no"?>
<!DOCTYPE svg PUBLIC "-//W3C//DTD SVG 1.1//EN" "http://www.w3.org/Graphics/SVG/1.1/DTD/svg11.dtd">
<svg width="100%" height="100%" viewBox="0 0 75 91" version="1.1" xmlns="http://www.w3.org/2000/svg" xmlns:xlink="http://www.w3.org/1999/xlink" xml:space="preserve" xmlns:serif="http://www.serif.com/" style="fill-rule:evenodd;clip-rule:evenodd;stroke-linecap:round;stroke-linejoin:round;stroke-miterlimit:1.5;">
    <g transform="matrix(1,0,0,1,-625.89,-534.145)">
        <g transform="matrix(1.13873,0,0,1.13873,605.032,448.468)">
            <g transform="matrix(0.878175,0,0,1.29601,-379.178,-617.324)">
                <path d="M490,536.415L490,593.357" style="fill:none;stroke:black;stroke-width:4.76px;"/>
            </g>
            <g transform="matrix(0.995587,0,0,0.995587,-436.71,-426.29)">
                <path d="M473.241,564.368L506.759,564.368" style="fill:none;stroke:black;stroke-width:5.29px;"/>
            </g>
            <g transform="matrix(0.878175,0,0,0.878175,-531.324,-393.834)">
                <path d="M669.618,543.511L663.252,537.145L656.893,543.504" style="fill:none;stroke:black;stroke-width:6px;"/>
            </g>
            <g transform="matrix(0.878175,0,0,0.878175,-555.916,-388.243)">
                <path d="M669.618,543.511L663.252,537.145L656.893,543.504" style="fill:none;stroke:black;stroke-width:6px;"/>
            </g>
            <g transform="matrix(0.878175,0,0,0.878175,-506.697,-388.243)">
                <path d="M669.618,543.511L663.252,537.145L656.893,543.504" style="fill:none;stroke:black;stroke-width:6px;"/>
            </g>
            <g transform="matrix(0.93708,0,0,0.93708,-570.397,-428.778)">
                <path d="M689.54,546.637L689.496,558.598C689.496,573.081 677.738,584.838 663.256,584.838C648.774,584.838 637.016,573.081 637.016,558.598L637.016,546.637" style="fill:none;stroke:black;stroke-width:5.62px;stroke-linecap:butt;"/>
            </g>
        </g>
    </g>
</svg>
