<svg viewBox="0 0 24 24" xmlns="http://www.w3.org/2000/svg" xml:space="preserve" style="fill-rule:evenodd;clip-rule:evenodd;stroke-linejoin:round;stroke-miterlimit:2">
    <path style="fill:none" d="M-16.619-16.244H92.048V92.423H-16.619z" transform="matrix(.22086 0 0 .22086 3.67 3.588)"/>
    <path d="M705.559 457.137c2.501-2.633 11.282-4.362 3.698-7.635-6.378-2.753-10.751 4.738-11.173 5.431-.277.448-5.932 9.191-8.53 19.483h-4.868c.052-2.754-.258-5.487-1.082-8.079-2.553-9.364-6.086-13.614-10.004-16.388-1.157-.822-2.568-1.796-7.368-.178-1.332.448-7.932 1.768-3.062 5.125 7.302 5.034 10.658 12.28 11.536 19.52h-3.598c-.932 0-1.395.828-1.688 1.601-.548 1.448-1.883 4.265-2.362 5.746-.277.841.754 1.595 1.687 1.595h5.867a35.565 35.565 0 0 1-.767 3.947c-1.374 5.382-3.799 10.545-6.446 13.338-2.501 2.631-11.282 4.361-3.697 7.634 6.379 2.748 10.748-4.734 11.177-5.429.274-.45 5.926-9.19 8.525-19.49h4.867c-.049 2.754.26 5.49 1.081 8.081 2.553 9.364 6.092 13.612 10.004 16.393 1.161.817 2.571 1.793 7.371.177 1.33-.447 7.932-1.772 3.061-5.13-7.302-5.029-10.658-12.277-11.537-19.521h3.755c.936 0 1.557-.7 1.832-1.541.524-1.606 1.717-4.311 2.226-5.8.283-.842-.76-1.601-1.693-1.601h-6.026c.187-1.357.451-2.678.77-3.945 1.371-5.383 3.796-10.541 6.444-13.334Z" style="fill-rule:nonzero" transform="translate(-216.887 -147.672) scale(.33342)"/>
</svg>
