<svg viewBox="0 0 24 24" xmlns="http://www.w3.org/2000/svg" xml:space="preserve" style="fill-rule:evenodd;clip-rule:evenodd;stroke-linejoin:round;stroke-miterlimit:2">
    <path style="fill:none" d="M-16.619-16.244H92.048V92.423H-16.619z" transform="matrix(.22086 0 0 .22086 3.67 3.588)"/>
    <path d="M117.653 502.596c3.02-3.017 1.009-3.614-3.617-8.492-5.204-5.481-3.795-6.083-.462-9.73 3.4-3.714 13.602-14.982 13.602-14.982 1.193-1.15 7.108-8.667 5.442 3.757-.449 4.669.002 6.367 3.903 6.367 3.904 0 3.856-1.678 3.906-6.367.056-5.47 2.373-20.371.692-21.858-1.482-1.684-16.389.638-21.854.693-4.693.049-6.367.006-6.367 3.907 0 3.901 1.697 4.35 6.367 3.904 12.424-1.668 4.903 4.246 3.757 5.442 0 0-11.09 10.021-14.804 13.421-3.645 3.329-4.427 4.924-9.908-.279-4.878-4.625-5.478-6.634-8.493-3.621l-.159.154c-.052.059-.104.109-.159.162-3.016 3.017-2.009 4.818 3.623 8.492 7.305 4.768 3.272 5.778-.223 9.271-2.378 2.38-10.91 7.246-6.186 12.433l-.13-.133c.115.129.226.24.341.353.112.112.225.229.351.339l-.131-.132c5.181 4.721 10.053-3.805 12.431-6.185 3.491-3.494 4.504-7.524 9.27-.225 3.677 5.635 5.477 6.638 8.493 3.625.054-.051.108-.107.156-.16l.159-.156Z" style="fill-rule:nonzero" transform="matrix(.3545 0 0 .3545 -28.242 -157.762)"/>
</svg>
