<svg viewBox="0 0 24 24" xmlns="http://www.w3.org/2000/svg" xml:space="preserve" style="fill-rule:evenodd;clip-rule:evenodd;stroke-linejoin:round;stroke-miterlimit:2">
    <path style="fill:none" d="M-16.619-16.244H92.048V92.423H-16.619z" transform="matrix(.22086 0 0 .22086 3.67 3.588)"/>
    <path d="m725.58 314.699-3.765-6.45-3.765-6.448c-1.029-1.764-2.703-1.764-3.732 0l-3.762 6.448-3.767 6.45c-1.03 1.76-.194 3.194 1.867 3.194 0 0 3.548-.406 4.435.211.533.367-.938 1.072-3.862 3.23-5.126 3.778-7.158-2.089-7.382-4.938-.226-2.842-2.036-27.595-.215-36.991.519-2.693 5.229-8.667.639-8.303-6.835.54-8.921-1.157-12.654-1.917-2.412-.492-4.249 2.853-6.014 3.161-3.825.656-8.305-2.392-11.29-3.441-2.71-.952-4.939 2.781-6.822 3.721-3.997 1.984-6.466-5.954-11.023-2.825-4.994 3.429-10.457 7.355-5.705 9.012 4.925 1.721 5.071 5.001 5.303 6.938.233 1.937.826 12.394.826 12.394s.226 16.83-.204 18.975c-.932 4.617-3.06 3.364.774 9.163.712 1.076 1.866 3.595 3.815 3.59 1.947.005 3.102-2.514 3.815-3.59 3.832-5.799 1.703-4.546.773-9.163-.316-1.574-.826-31.788-.826-31.857-.052-3.958 2.327-7.167 5.196-7.167 2.869 0 5.194 3.209 5.194 7.167 0 .312.976 29.712.545 31.857-.931 4.617-3.06 3.364.773 9.163.713 1.076 1.867 3.595 3.816 3.59 1.951.005 3.104-2.514 3.815-3.59 3.836-5.799 1.704-4.546.775-9.163-.332-1.651-2.234-23.189-.55-33.085.57-3.354 2.548-5.939 5.116-5.939h.393c2.673.268 4.636 3.274 4.636 6.947 0 .34.448 28.815.545 30.956.118 2.602 3.327 26.412 23.318 5.223 1.45-1.533 1.782-2.668 2.959-2.951 1.074-.25 4.143-.378 4.143-.378 2.061 0 2.897-1.434 1.867-3.194Z" style="fill-rule:nonzero" transform="translate(-178.946 -71.254) scale(.27817)"/>
</svg>
