<?xml version="1.0" encoding="UTF-8" standalone="no"?>
<!DOCTYPE svg PUBLIC "-//W3C//DTD SVG 1.1//EN" "http://www.w3.org/Graphics/SVG/1.1/DTD/svg11.dtd">
<svg width="100%" height="100%" viewBox="0 0 75 88" version="1.1" xmlns="http://www.w3.org/2000/svg" xmlns:xlink="http://www.w3.org/1999/xlink" xml:space="preserve" xmlns:serif="http://www.serif.com/" style="fill-rule:evenodd;clip-rule:evenodd;stroke-linejoin:round;stroke-miterlimit:1.5;">
    <g transform="matrix(1,0,0,1,-278.935,-911.803)">
        <g transform="matrix(1.13873,0,0,1.13873,258.113,824.301)">
            <g transform="matrix(1,0,0,1,0.84534,0)">
                <g transform="matrix(0.905253,0,0,0.905253,-707.41,-388.604)">
                    <path d="M820.21,579.281C810.294,573.494 803.626,562.74 803.626,550.44C803.626,532.024 818.578,517.072 836.994,517.072C855.411,517.072 870.363,532.024 870.363,550.44C870.363,562.379 864.08,572.861 854.643,578.759" style="fill:none;stroke:black;stroke-width:5.82px;"/>
                </g>
                <g transform="matrix(0.257785,0,0,0.257785,-185.539,0.98873)">
                    <circle cx="836.994" cy="550.44" r="33.369" style="fill:none;stroke:black;stroke-width:20.44px;"/>
                </g>
                <g transform="matrix(0.257785,0,0,0.257785,-145.41,0.98873)">
                    <circle cx="836.994" cy="550.44" r="33.369" style="fill:none;stroke:black;stroke-width:20.44px;"/>
                </g>
            </g>
        </g>
    </g>
</svg>
