<svg viewBox="0 0 24 24" xmlns="http://www.w3.org/2000/svg" xml:space="preserve" style="fill-rule:evenodd;clip-rule:evenodd;stroke-linejoin:round;stroke-miterlimit:2">
    <path style="fill:none" d="M-16.619-16.244H92.048V92.423H-16.619z" transform="matrix(.22086 0 0 .22086 3.67 3.588)"/>
    <path d="M304.507 139.002c-5.516 0-9.987-4.47-9.987-9.989 0-5.514 4.471-9.987 9.987-9.987s9.986 4.473 9.986 9.987c0 5.519-4.47 9.989-9.986 9.989Zm35.421-48.827c-.534-1.453-4.217-7.855-13.715-4.038-7.826 3.145-8.882 7.331-12.251 16.646-.998 3.726-2.256 6.871-4.691 8.896 0 0-.002 0-.003.004a17.801 17.801 0 0 0-4.761-.648c-1.65 0-3.244.228-4.762.644h-.002c-2.434-2.025-3.692-5.17-4.69-8.896-3.37-9.315-4.427-13.501-12.251-16.646-9.5-3.817-13.182 2.585-13.716 4.038-.621 1.689.134 4.53 3.862 3.153 3.729-1.377 8.301 1.996 10.786 5.902 2.484 3.905 2.661 7.051 4.174 10.295 1.149 2.474 2.507 3.21 3.883 4.275 1.376 1.064.872 1.692.872 1.692h.003a17.924 17.924 0 0 0-6.134 13.521c0 9.932 8.046 17.975 17.975 17.975 9.929 0 17.977-8.043 17.977-17.975 0-5.394-2.378-10.228-6.14-13.521h.009s-.504-.628.872-1.692c1.375-1.065 2.733-1.801 3.883-4.275 1.514-3.244 1.688-6.39 4.173-10.295 2.486-3.906 7.058-7.279 10.786-5.902 3.728 1.377 4.482-1.464 3.861-3.153Z" style="fill-rule:nonzero" transform="translate(-82.03 -23.44) scale(.30883)"/>
</svg>
