<?xml version="1.0" encoding="UTF-8" standalone="no"?>
<!DOCTYPE svg PUBLIC "-//W3C//DTD SVG 1.1//EN" "http://www.w3.org/Graphics/SVG/1.1/DTD/svg11.dtd">
<svg width="100%" height="100%" viewBox="0 0 1000 1000" version="1.1" xmlns="http://www.w3.org/2000/svg" xmlns:xlink="http://www.w3.org/1999/xlink" xml:space="preserve" xmlns:serif="http://www.serif.com/" style="fill-rule:evenodd;clip-rule:evenodd;stroke-linejoin:round;stroke-miterlimit:2;">
    <g transform="matrix(1,0,0,1,-9.59011e-13,-0.00563008)">
        <g transform="matrix(1,0,0,1,-1038.97,0)">
            <g id="Icon-3-5" serif:id="Icon 3,5" transform="matrix(4.14145,0,0,4.14145,-531.753,-1570.73)">
                <path d="M496.721,612.812C494.91,614.623 494.91,617.56 496.721,619.371C498.532,621.182 501.469,621.182 503.28,619.371C505.091,617.56 505.091,614.623 503.28,612.812C501.469,611.001 498.532,611.001 496.721,612.812L496.721,612.812ZM444.558,547.898C436.9,550.898 428.307,549.046 421.556,542.296L390.798,511.537C390.014,510.753 390.013,509.482 390.798,508.697L390.798,508.697C391.582,507.913 392.853,507.913 393.637,508.697L424.396,539.456C429.535,544.595 437.88,547.026 445.231,543.085C445.319,543.039 445.406,542.992 445.495,542.942C446.236,542.524 447.19,542.598 447.913,543.045C448.655,543.505 449.149,544.331 448.964,545.343C448.934,545.507 448.938,545.677 448.925,545.844C448.149,556.027 451.786,566.824 459.726,574.763L491.324,606.383C492.104,607.165 492.104,608.432 491.323,609.215C490.541,609.997 489.272,609.997 488.49,609.215C488.49,609.215 456.685,577.409 456.685,577.409C448.444,569.169 444.393,558.526 444.558,547.898ZM547.901,555.441C550.9,563.099 549.049,571.692 542.299,578.443L511.54,609.203C510.755,609.986 509.484,609.986 508.7,609.203L508.7,609.202C507.915,608.418 507.915,607.146 508.7,606.362L539.459,575.603C544.597,570.465 547.029,562.119 543.088,554.768C543.041,554.681 542.995,554.593 542.945,554.505C542.527,553.764 542.6,552.81 543.048,552.087C543.508,551.344 544.334,550.851 545.346,551.035C545.511,551.066 545.681,551.061 545.847,551.074C556.03,551.851 566.825,548.213 574.766,540.274L606.385,508.676C607.167,507.894 608.435,507.895 609.217,508.677C609.999,509.459 609.999,510.727 609.217,511.509C609.217,511.509 577.411,543.315 577.411,543.315C569.171,551.555 558.528,555.606 547.901,555.441ZM517.218,536.494C517.555,536.1 517.968,535.905 518.574,535.905C519.166,535.905 519.638,536.1 520.059,536.518L536.506,552.965C539.13,555.591 540.41,558.713 540.41,562.51C540.41,566.152 539.138,569.273 536.511,572.048C536.507,572.053 536.502,572.058 536.497,572.063C536.497,572.063 501.475,607.085 501.474,607.086C501.05,607.508 500.528,607.645 499.989,607.645C499.449,607.645 498.94,607.496 498.516,607.075L462.367,570.925L462.347,570.904C455.895,563.924 452.761,555.051 453.513,545.923C454.325,536.058 459.528,526.712 467.798,520.286C473.948,515.51 481.587,513.415 489.312,514.385C495.803,515.2 501.701,518.099 506.253,522.651C507.119,523.516 507.936,524.441 508.7,525.424C512.587,530.429 514.294,536.65 513.504,542.938C512.714,549.225 509.523,554.83 504.517,558.719C500.427,561.895 495.344,563.291 490.206,562.645C485.067,561.998 480.487,559.391 477.309,555.3C474.701,551.943 473.556,547.769 474.086,543.55C474.615,539.33 476.757,535.569 480.116,532.961C485.839,528.515 494.115,529.555 498.561,535.278C502.254,540.036 501.391,546.912 496.634,550.607C494.947,551.918 492.902,552.584 490.793,552.527C490.717,552.53 490.643,552.538 490.566,552.538C486.261,552.538 482.77,549.047 482.77,544.742C482.77,540.436 486.261,536.945 490.566,536.945C492.833,536.945 494.87,537.913 496.292,539.459C496.06,538.872 495.743,538.307 495.336,537.784C492.272,533.836 486.567,533.12 482.621,536.186C480.123,538.125 478.53,540.921 478.137,544.059C477.742,547.196 478.595,550.299 480.533,552.797C485.709,559.46 495.347,560.672 502.013,555.493C506.157,552.275 508.8,547.635 509.453,542.428C510.107,537.223 508.694,532.072 505.475,527.929C501.369,522.641 495.447,519.27 488.804,518.435C482.162,517.601 475.59,519.403 470.302,523.511C462.942,529.229 458.302,537.517 457.581,546.258C456.915,554.345 459.594,561.897 465.319,568.104L499.971,602.756L533.533,569.193C535.381,567.347 536.318,565.1 536.318,562.51C536.318,559.922 535.381,557.675 533.535,555.831C533.535,555.831 533.535,555.831 533.535,555.831C533.535,555.831 517.142,539.436 517.143,539.437C516.72,539.017 516.582,538.49 516.582,537.95C516.582,537.412 516.765,536.961 517.179,536.538L517.218,536.494ZM536.498,482.782C536.102,482.445 535.908,482.032 535.908,481.426C535.908,480.833 536.102,480.359 536.522,479.941C536.522,479.941 552.968,463.494 552.968,463.494C555.593,460.869 558.715,459.59 562.513,459.59C566.154,459.59 569.275,460.862 572.051,463.488C572.056,463.493 572.061,463.498 572.065,463.502C572.065,463.502 607.088,498.525 607.09,498.526C607.511,498.95 607.648,499.472 607.648,500.01C607.648,500.552 607.498,501.06 607.076,501.484L570.928,537.633L570.907,537.653C563.927,544.104 555.052,547.239 545.925,546.487C536.061,545.675 526.714,540.472 520.288,532.201C515.513,526.052 513.418,518.412 514.387,510.687C515.203,504.196 518.102,498.299 522.653,493.747C523.519,492.881 524.443,492.063 525.427,491.3C530.431,487.412 536.652,485.705 542.941,486.495C549.228,487.286 554.832,490.476 558.721,495.482C561.898,499.572 563.293,504.656 562.648,509.793C562.001,514.933 559.393,519.512 555.303,522.691C551.945,525.299 547.771,526.444 543.553,525.914C539.333,525.384 535.572,523.242 532.964,519.884C528.517,514.16 529.557,505.884 535.28,501.439C540.039,497.745 546.914,498.609 550.61,503.366C551.92,505.053 552.586,507.098 552.529,509.206C552.532,509.282 552.54,509.357 552.54,509.434C552.54,513.739 549.05,517.229 544.744,517.229C540.439,517.229 536.948,513.739 536.948,509.434C536.948,507.167 537.916,505.129 539.462,503.707C538.874,503.939 538.31,504.257 537.787,504.664C533.838,507.728 533.123,513.432 536.189,517.379C538.128,519.877 540.924,521.469 544.061,521.863C547.199,522.258 550.302,521.405 552.8,519.467C559.463,514.29 560.675,504.653 555.496,497.986C552.277,493.843 547.638,491.2 542.431,490.546C537.225,489.893 532.075,491.306 527.931,494.524C522.643,498.631 519.272,504.553 518.437,511.195C517.603,517.838 519.406,524.409 523.514,529.698C529.232,537.058 537.52,541.697 546.261,542.418C554.348,543.084 561.898,540.405 568.107,534.68L602.759,500.029L569.196,466.466C567.349,464.619 565.102,463.682 562.513,463.682C559.925,463.682 557.677,464.619 555.833,466.464C555.833,466.464 555.833,466.464 555.833,466.464C555.833,466.464 539.438,482.858 539.44,482.856C539.019,483.28 538.493,483.417 537.953,483.417C537.415,483.417 536.963,483.235 536.541,482.82L536.498,482.782ZM463.504,517.215C463.9,517.552 464.094,517.965 464.094,518.571C464.094,519.163 463.899,519.636 463.481,520.056L447.034,536.503C444.409,539.127 441.287,540.408 437.49,540.408C433.848,540.408 430.727,539.136 427.951,536.508C427.946,536.504 427.941,536.499 427.937,536.494C427.937,536.494 392.914,501.472 392.913,501.471C392.492,501.048 392.354,500.526 392.354,499.987C392.354,499.445 392.503,498.937 392.926,498.513L429.075,462.364L429.096,462.344C436.075,455.893 444.949,452.758 454.076,453.51C463.941,454.322 473.288,459.525 479.714,467.796C484.489,473.945 486.585,481.585 485.615,489.31C484.799,495.801 481.9,501.698 477.349,506.249C476.484,507.116 475.559,507.933 474.575,508.698C469.57,512.585 463.35,514.291 457.061,513.502C450.774,512.711 445.17,509.521 441.28,504.515C438.104,500.425 436.709,495.341 437.354,490.204C438.002,485.064 440.61,480.485 444.699,477.306C448.057,474.698 452.231,473.553 456.449,474.083C460.669,474.613 464.43,476.755 467.038,480.113C471.485,485.837 470.444,494.113 464.722,498.558C459.963,502.252 453.088,501.389 449.392,496.631C448.082,494.944 447.416,492.899 447.473,490.79C447.47,490.714 447.462,490.64 447.462,490.564C447.462,486.258 450.953,482.768 455.258,482.768C459.564,482.768 463.055,486.258 463.055,490.564C463.055,492.83 462.086,494.868 460.54,496.29C461.128,496.058 461.692,495.74 462.216,495.333C466.164,492.269 466.879,486.564 463.813,482.618C461.874,480.12 459.079,478.527 455.941,478.134C452.804,477.739 449.7,478.592 447.203,480.531C440.539,485.707 439.327,495.345 444.506,502.011C447.724,506.154 452.364,508.797 457.571,509.451C462.777,510.105 467.927,508.691 472.071,505.473C477.359,501.366 480.73,495.444 481.565,488.802C482.399,482.159 480.596,475.588 476.488,470.299C470.77,462.939 462.482,458.299 453.742,457.579C445.654,456.913 438.103,459.591 431.895,465.316L397.243,499.968L430.806,533.531C432.652,535.378 434.9,536.315 437.49,536.315C440.077,536.315 442.325,535.378 444.168,533.533C444.169,533.533 444.169,533.533 444.169,533.533C444.169,533.533 460.564,517.139 460.562,517.141C460.983,516.718 461.509,516.58 462.049,516.58C462.588,516.58 463.039,516.762 463.462,517.177L463.504,517.215ZM612.813,503.28C614.625,505.091 617.561,505.091 619.372,503.28C621.183,501.468 621.183,498.532 619.373,496.721C617.561,494.909 614.625,494.909 612.813,496.721C611.003,498.532 611.003,501.468 612.813,503.28L612.813,503.28ZM387.187,496.719C385.376,494.908 382.439,494.908 380.628,496.719C378.817,498.53 378.817,501.467 380.628,503.278C382.439,505.089 385.376,505.089 387.187,503.278C388.998,501.467 388.998,498.53 387.187,496.719L387.187,496.719ZM452.102,444.556C449.102,436.898 450.953,428.305 457.703,421.555C457.703,421.555 488.463,390.795 488.462,390.796C489.246,390.011 490.518,390.011 491.302,390.795C492.086,391.579 492.086,392.851 491.302,393.635C491.302,393.635 460.543,424.394 460.543,424.394C455.405,429.532 452.973,437.878 456.914,445.229C456.961,445.316 457.007,445.404 457.057,445.492C457.475,446.233 457.402,447.187 456.954,447.91C456.494,448.653 455.668,449.146 454.659,448.962C454.493,448.932 454.324,448.936 454.155,448.923C443.972,448.146 433.176,451.784 425.236,459.724L393.617,491.32C392.835,492.103 391.568,492.102 390.785,491.32C390.002,490.538 390.003,489.269 390.785,488.488C390.785,488.488 422.591,456.682 422.591,456.682C430.831,448.442 441.474,444.391 452.102,444.556ZM609.204,491.299C608.42,492.084 607.148,492.084 606.365,491.299C606.365,491.299 575.606,460.541 575.606,460.541C570.467,455.402 562.122,452.971 554.771,456.912C554.683,456.958 554.595,457.005 554.507,457.055C553.766,457.473 552.812,457.399 552.089,456.952C551.346,456.492 550.853,455.666 551.038,454.655C551.068,454.49 551.064,454.32 551.077,454.153C551.854,443.969 548.216,433.174 540.276,425.234L508.678,393.615C507.897,392.832 507.897,391.564 508.679,390.783C509.461,390.001 510.73,390.001 511.512,390.783C511.512,390.783 543.317,422.588 543.317,422.588C551.557,430.829 555.608,441.472 555.444,452.099C563.102,449.099 571.695,450.951 578.445,457.701C578.445,457.701 609.204,488.46 609.204,488.46C609.989,489.244 609.989,490.516 609.204,491.299ZM482.784,463.502C482.448,463.897 482.035,464.092 481.428,464.092C480.836,464.092 480.364,463.897 479.943,463.479L463.496,447.032C460.872,444.406 459.592,441.284 459.592,437.487C459.592,433.845 460.864,430.724 463.491,427.949C463.495,427.944 463.5,427.939 463.505,427.934C463.505,427.934 498.527,392.912 498.527,392.912C498.95,392.49 499.474,392.352 500.012,392.352C500.554,392.352 501.063,392.501 501.486,392.924L537.635,429.073L537.655,429.093C544.106,436.073 547.241,444.947 546.489,454.074C545.678,463.939 540.474,473.285 532.203,479.711C526.055,484.487 518.415,486.583 510.689,485.612C504.198,484.797 498.301,481.898 493.749,477.346C492.883,476.481 492.066,475.556 491.302,474.573C487.415,469.569 485.708,463.348 486.498,457.059C487.288,450.772 490.479,445.167 495.485,441.278C499.575,438.102 504.658,436.706 509.795,437.351C514.935,437.999 519.515,440.607 522.693,444.697C525.301,448.054 526.446,452.228 525.916,456.447C525.387,460.667 523.245,464.428 519.886,467.036C514.163,471.482 505.887,470.442 501.442,464.719C497.748,459.961 498.611,453.085 503.368,449.39C505.055,448.08 507.1,447.414 509.209,447.47C509.285,447.467 509.359,447.459 509.435,447.459C513.741,447.459 517.232,450.95 517.232,455.256C517.232,459.561 513.741,463.052 509.435,463.052C507.169,463.052 505.132,462.083 503.71,460.538C503.942,461.125 504.259,461.689 504.666,462.213C507.73,466.161 513.435,466.877 517.381,463.81C519.879,461.872 521.472,459.076 521.865,455.938C522.26,452.801 521.407,449.698 519.468,447.2C514.292,440.537 504.655,439.325 497.989,444.503C493.845,447.722 491.203,452.362 490.549,457.569C489.895,462.775 491.308,467.925 494.527,472.068C498.633,477.357 504.556,480.727 511.198,481.562C517.84,482.396 524.412,480.594 529.7,476.485C537.06,470.768 541.7,462.479 542.421,453.739C543.087,445.652 540.408,438.101 534.683,431.893L500.031,397.241L466.468,430.804C464.622,432.65 463.685,434.897 463.685,437.487C463.685,440.075 464.622,442.322 466.466,444.166C466.466,444.166 466.466,444.166 466.466,444.166C466.466,444.166 482.86,460.561 482.859,460.56C483.282,460.981 483.42,461.507 483.42,462.047C483.42,462.585 483.238,463.037 482.822,463.459L482.784,463.502ZM503.281,387.188C501.469,388.999 498.533,388.999 496.721,387.188C494.91,385.376 494.91,382.441 496.721,380.629C498.533,378.818 501.469,378.818 503.281,380.629C505.092,382.441 505.092,385.376 503.281,387.188Z" style="fill-rule:nonzero;"/>
            </g>
        </g>
    </g>
</svg>
