<svg viewBox="0 0 24 24" xmlns="http://www.w3.org/2000/svg" xml:space="preserve" style="fill-rule:evenodd;clip-rule:evenodd;stroke-linejoin:round;stroke-miterlimit:2">
    <path style="fill:none" d="M-16.619-16.244H92.048V92.423H-16.619z" transform="matrix(.22086 0 0 .22086 3.67 3.588)"/>
    <path d="M330.049 290.76c-4.713 16.581-12.103 21.57-12.103 13.444 0 0 .246-15.663 0-20.882-.08-1.712-.508-6.006 3.325-6.006 4.712 0 11.797 2.821 8.778 13.444Zm7.562-17.603c-6.514-8.778-14.161-5.693-15.179-3.522-1.015 2.171-.746 2.237-2.307 2.021-3.48-.486-13.89-3.743-13.89-3.743-2.179-.338-3.463 2.703-4.795 3.595-3.368-.853-10.731-3.595-10.731-3.595-2.541-.397-3.787 3.007-5.474 3.847-3.574 1.777-5.784-5.326-9.86-2.525-4.47 3.066-9.354 6.58-5.104 8.063 4.404 1.536 4.538 4.472 4.746 6.206.206 1.73.738 11.084.738 11.084s.203 15.057-.184 16.978c-.832 4.129-2.737 3.009.693 8.196.636.964 1.668 3.213 3.411 3.204 1.744.009 2.775-2.24 3.413-3.204 3.429-5.187 1.525-4.067.692-8.196-.281-1.408-.738-28.44-.738-28.502-.046-3.539 2.081-6.412 4.648-6.412 2.567 0 4.647 2.873 4.647 6.412 0 .28.873 26.581.487 28.502-.832 4.129-2.737 3.009.693 8.196.637.964 1.668 3.213 3.413 3.204 1.744.009 2.775-2.24 3.411-3.204 3.431-5.187 1.527-4.067.695-8.196-.299-1.479-1.999-20.751-.493-29.6.51-3 2.279-5.314 4.574-5.314 1.784 0 3.152 1.467 4.109 3.421.627 1.282.838 2.499.949 3.431.208 1.73.738 11.084.738 11.084s-.006 1.71-.022 4.05c-.016 2.284-.032 5.17-.06 7.649-.222 2.833-.008 6.096-.898 9.013-.468 1.536-2.317 3.348-6.599 5.374 0 0-7.057 3.572-3.635 7.983.615.796 1.006 1.157 1.648 1.157.64 0 5.018-6.661 7.221-5.244 1.296.833-.926 4.743.323 5.871.99.9 5.544.95 5.544.95s4.699-.067 4.563-1.659c-.151-1.763-2.773-12.056-.798-13.545 5.694-4.294 12.903-11.224 15.344-14.021 4.081-4.68 10.576-20.232 4.067-29.009Z" style="fill-rule:nonzero" transform="matrix(.30666 0 0 .30666 -81.367 -79.781)"/>
</svg>
